<svg width="18" height="18" viewBox="0 0 18 18" fill="none" xmlns="http://www.w3.org/2000/svg">
<path d="M6.4391 10.4987C6.43916 10.4988 6.43922 10.4989 6.43928 10.4989L6.4391 10.4987ZM6.4391 10.4987L6.43821 10.4978C6.43851 10.4981 6.4388 10.4984 6.4391 10.4987ZM8.29011 9.80163L7.02019 11.0813L6.91842 10.9793L8.19839 9.711L8.91475 9.0012L8.19894 8.29084L6.91866 7.02032L7.02154 6.91744L8.28904 8.19858L8.99883 8.91602L9.70973 8.19967L10.9802 6.91939L11.0831 7.02227L9.80199 8.28977L9.08454 8.99956L9.8009 9.71046L11.0806 10.9804L10.9785 11.0822L9.71027 9.80218L9.00046 9.08582L8.29011 9.80163ZM11.5643 7.50346C11.5642 7.5033 11.564 7.50314 11.5638 7.50297L11.5643 7.50346ZM10.4971 11.5624C10.4974 11.5621 10.4977 11.5618 10.498 11.5615L10.4971 11.5624ZM8.99992 1.33398C4.76484 1.33398 1.33325 4.76557 1.33325 9.00065C1.33325 13.2357 4.76484 16.6673 8.99992 16.6673C13.235 16.6673 16.6666 13.2357 16.6666 9.00065C16.6666 4.76557 13.235 1.33398 8.99992 1.33398Z" fill="#6F7893" stroke="white" stroke-width="2"/>
</svg>
