<svg width="24" height="24" viewBox="0 0 24 24" fill="none" xmlns="http://www.w3.org/2000/svg">
<path fill-rule="evenodd" clip-rule="evenodd" d="M19.3341 4.66502C17.6421 2.97215 14.8979 2.97198 13.2047 4.66514C12.9323 4.93759 12.4905 4.93759 12.2181 4.66514C11.9456 4.39268 11.9456 3.95095 12.2181 3.6785C14.4486 1.44801 18.0597 1.44042 20.2986 3.65635C20.3065 3.66354 20.3142 3.67092 20.3218 3.6785C22.5597 5.91638 22.5599 9.54408 20.3218 11.7812C20.3218 11.7813 20.3219 11.7812 20.3218 11.7812L11.7825 20.3215C9.55107 22.5519 5.94088 22.5596 3.70109 20.3438C3.69313 20.3366 3.68533 20.3291 3.67768 20.3215C1.44084 18.0836 1.44067 14.4559 3.6778 12.2188L8.30445 7.59307C8.30455 7.59298 8.30436 7.59317 8.30445 7.59307C9.55929 6.33735 11.5949 6.33716 12.8496 7.59307C14.1041 8.84783 14.1041 10.8828 12.8494 12.1375C12.8494 12.1375 12.8495 12.1375 12.8494 12.1375L8.22442 16.7635C7.95199 17.0359 7.51026 17.036 7.23778 16.7636C6.9653 16.4911 6.96525 16.0494 7.23768 15.7769L11.8627 11.151C12.5726 10.4411 12.5726 9.28933 11.8628 8.57948C11.153 7.86901 10.0014 7.86877 9.29156 8.57925L4.66444 13.2054C4.66442 13.2055 4.66446 13.2054 4.66444 13.2054C2.9789 14.891 2.97222 17.6208 4.6451 19.3155C4.65197 19.3218 4.65873 19.3283 4.66537 19.3349C6.35835 21.0279 9.10165 21.0281 10.7958 19.335C10.7958 19.3349 10.7957 19.335 10.7958 19.335L19.3351 10.7947C21.0215 9.10909 21.0283 6.37936 19.3546 4.6847C19.3477 4.67829 19.3408 4.67173 19.3341 4.66502Z" fill="#6F7893"/>
</svg>
