<svg width="40" height="40" viewBox="0 0 40 40" fill="none" xmlns="http://www.w3.org/2000/svg">
<path d="M13.6693 12.5129L22.4505 10.16" stroke="white" stroke-width="1.6" stroke-linecap="round" stroke-linejoin="round"/>
<path fill-rule="evenodd" clip-rule="evenodd" d="M22.8645 8.71014L24.8799 1.6667L7.31762 6.3725L12.5862 11.4642C13.1649 12.026 13.2139 12.9462 12.673 13.5444C8.434 18.2253 4.76109 26.1019 6.31244 31.8916C6.81518 33.7678 7.57028 35.1341 8.52403 36.1177L8.54403 36.1924C8.53815 36.1704 8.53519 36.1477 8.53263 36.1264C11.5598 39.2399 16.6357 38.3849 22.4269 36.8332L27.0267 35.6007C34.6488 33.5584 40.6103 31.1029 38.51 23.2643C36.9586 17.4746 29.841 12.4893 23.8294 10.5551C23.0619 10.3074 22.6442 9.48603 22.8645 8.71014Z" stroke="white" stroke-width="1.6" stroke-linecap="round" stroke-linejoin="round"/>
<path d="M20.8044 21.5813L22.7652 28.8989" stroke="white" stroke-width="1.2" stroke-linecap="round" stroke-linejoin="round"/>
<path d="M17.8773 22.3655L23.7314 20.7969" stroke="white" stroke-width="1.2" stroke-linecap="round" stroke-linejoin="round"/>
<path d="M17.0931 19.4385L22.9472 17.8699" stroke="white" stroke-width="1.2" stroke-linecap="round" stroke-linejoin="round"/>
</svg>
