<svg width="40" height="40" viewBox="0 0 40 40" fill="none" xmlns="http://www.w3.org/2000/svg">
<path d="M13.6694 12.5132L22.4506 10.1603" stroke="#EF533F" stroke-width="2" stroke-linecap="round" stroke-linejoin="round"/>
<path fill-rule="evenodd" clip-rule="evenodd" d="M22.8645 8.71039L24.8799 1.66695L7.31762 6.37275L12.5862 11.4645C13.1649 12.0262 13.2139 12.9464 12.673 13.5447C8.434 18.2256 4.76109 26.1021 6.31244 31.8918C6.81518 33.7681 7.57028 35.1344 8.52403 36.118L8.54403 36.1926C8.53815 36.1707 8.53519 36.1479 8.53263 36.1267C11.5598 39.2402 16.6357 38.3852 22.4269 36.8334L27.0267 35.6009C34.6488 33.5586 40.6103 31.1032 38.51 23.2645C36.9586 17.4748 29.841 12.4896 23.8294 10.5553C23.0619 10.3077 22.6442 9.48627 22.8645 8.71039Z" stroke="#EF533F" stroke-width="2" stroke-linecap="round" stroke-linejoin="round"/>
<path d="M20.8044 21.5815L22.7652 28.8992" stroke="#282828" stroke-width="1.6" stroke-linecap="round" stroke-linejoin="round"/>
<path d="M17.8772 22.3657L23.7313 20.7971" stroke="#282828" stroke-width="1.6" stroke-linecap="round" stroke-linejoin="round"/>
<path d="M17.0933 19.439L22.9474 17.8704" stroke="#282828" stroke-width="1.6" stroke-linecap="round" stroke-linejoin="round"/>
</svg>
