<svg width="22" height="22" viewBox="0 0 22 22" fill="none" xmlns="http://www.w3.org/2000/svg">
<path fill-rule="evenodd" clip-rule="evenodd" d="M10 14V8H12C12.552 8 13 8.447 13 9V13C13 13.553 12.552 14 12 14H10Z" stroke="#EF533F" stroke-width="1.2" stroke-linecap="round" stroke-linejoin="round"/>
<path d="M4 14V8H6C6.552 8 7 8.447 7 9V11C7 11.553 6.552 12 6 12H4" stroke="#EF533F" stroke-width="1.2" stroke-linecap="round" stroke-linejoin="round"/>
<path d="M16 14V8H18" stroke="#EF533F" stroke-width="1.2" stroke-linecap="round" stroke-linejoin="round"/>
<path d="M16 11H18" stroke="#EF533F" stroke-width="1.2" stroke-linecap="round" stroke-linejoin="round"/>
<path fill-rule="evenodd" clip-rule="evenodd" d="M17 21H5C2.791 21 1 19.209 1 17V5C1 2.791 2.791 1 5 1H17C19.209 1 21 2.791 21 5V17C21 19.209 19.209 21 17 21Z" stroke="#EF533F" stroke-width="1.2" stroke-linecap="round" stroke-linejoin="round"/>
</svg>
