<svg width="17" height="16" viewBox="0 0 17 16" fill="none" xmlns="http://www.w3.org/2000/svg">
<path d="M13.7488 0.202353L0.748649 7.6993C-0.326362 8.32118 -0.223236 9.91182 0.926776 10.3837L4.49869 11.8618V14.4994C4.49869 15.9494 6.3487 16.5463 7.20496 15.3931L8.57373 13.5462L12.0706 14.99C12.255 15.065 12.4488 15.1025 12.6425 15.1025C12.8988 15.1025 13.1519 15.0369 13.38 14.9087C13.78 14.6837 14.055 14.2837 14.1269 13.8306L15.9832 1.73049C16.1738 0.477356 14.83 -0.419528 13.7488 0.202353ZM5.9987 14.4994V12.4806L7.14246 12.9525L5.9987 14.4994ZM12.6425 13.6025L7.83622 11.6181L12.2175 5.29615C12.5519 4.81177 11.9206 4.24927 11.4769 4.63365L4.86744 10.3931L1.49866 8.99932L14.4988 1.49924L12.6425 13.6025Z" fill="white"/>
</svg>
