<svg width="48" height="48" viewBox="0 0 48 48" fill="none" xmlns="http://www.w3.org/2000/svg">
<rect x="1" y="1" width="46" height="46" rx="7" fill="#F5F5F7" stroke="#E0E0E0" stroke-width="2"/>
<path d="M13.3021 24.7048C15.3481 23.5778 17.6321 22.6371 19.7661 21.6917C23.4374 20.1431 27.1233 18.6214 30.8464 17.2047C31.5708 16.9634 32.8724 16.7273 33 17.8008C32.9301 19.3203 32.6426 20.8309 32.4454 22.3416C31.945 25.6636 31.3665 28.9742 30.8024 32.2853C30.608 33.3882 29.2264 33.9591 28.3424 33.2533C26.2178 31.8183 24.077 30.3972 21.9796 28.9288C21.2925 28.2307 21.9296 27.2282 22.5432 26.7296C24.2931 25.0052 26.1488 23.5401 27.8072 21.7265C28.2545 20.6463 26.9327 21.5566 26.4968 21.8356C24.1012 23.4864 21.7643 25.238 19.2387 26.6888C17.9486 27.399 16.445 26.7921 15.1555 26.3958C13.9993 25.9171 12.305 25.4348 13.302 24.7049L13.3021 24.7048Z" fill="#282828"/>
</svg>
