<svg width="40" height="40" viewBox="0 0 40 40" fill="none" xmlns="http://www.w3.org/2000/svg">
<rect x="0.5" y="0.5" width="39" height="39" rx="7.5" stroke="#E0E0E0"/>
<path d="M11.085 20.5874C12.79 19.6482 14.6933 18.8644 16.4717 18.0765C19.5311 16.786 22.6027 15.5179 25.7053 14.3374C26.3089 14.1362 27.3936 13.9395 27.4999 14.8341C27.4417 16.1003 27.2021 17.3592 27.0378 18.6181C26.6207 21.3864 26.1386 24.1453 25.6686 26.9045C25.5066 27.8236 24.3553 28.2993 23.6186 27.7112C21.8481 26.5153 20.0641 25.331 18.3162 24.1074C17.7437 23.5257 18.2746 22.6902 18.786 22.2748C20.2441 20.8377 21.7906 19.6168 23.1726 18.1055C23.5453 17.2053 22.4439 17.9639 22.0806 18.1964C20.0843 19.5721 18.1369 21.0317 16.0322 22.2407C14.9571 22.8325 13.7041 22.3268 12.6295 21.9966C11.666 21.5977 10.2541 21.1958 11.0849 20.5875L11.085 20.5874Z" fill="white"/>
</svg>
