<svg width="48" height="48" viewBox="0 0 48 48" fill="none" xmlns="http://www.w3.org/2000/svg">
<rect x="1" y="1" width="46" height="46" rx="7" fill="#F5F5F7" stroke="#E0E0E0" stroke-width="2"/>
<path fill-rule="evenodd" clip-rule="evenodd" d="M24.0415 33.8549H24.0374C22.3822 33.8544 20.7559 33.4391 19.3114 32.6512L14.0688 34.0264L15.4718 28.9018C14.6064 27.402 14.151 25.7007 14.1518 23.9577C14.1539 18.505 18.5904 14.0688 24.0414 14.0688C26.6869 14.07 29.17 15.0999 31.0371 16.9692C32.9042 18.8385 33.932 21.3231 33.9309 23.9655C33.9287 29.417 29.4941 33.8527 24.0415 33.8549ZM19.5544 30.8612L19.8545 31.0393C21.1165 31.7882 22.5632 32.1845 24.0382 32.185H24.0415C28.572 32.185 32.2593 28.4976 32.2611 23.9652C32.262 21.7689 31.4078 19.7037 29.8559 18.15C28.304 16.5963 26.2402 15.7403 24.0447 15.7395C19.5107 15.7395 15.8233 19.4266 15.8215 23.9586C15.8209 25.5117 16.2555 27.0243 17.0783 28.333L17.2737 28.644L16.4433 31.6772L19.5544 30.8612ZM28.6855 26.0949C28.8578 26.1782 28.9742 26.2345 29.0239 26.3174C29.0856 26.4204 29.0856 26.9152 28.8798 27.4925C28.6738 28.0697 27.6866 28.5965 27.2118 28.6674C26.7861 28.7311 26.2474 28.7576 25.6555 28.5695C25.2966 28.4556 24.8363 28.3036 24.2468 28.049C21.9302 27.0487 20.3647 24.8034 20.0688 24.3791C20.0481 24.3494 20.0336 24.3286 20.0255 24.3178L20.0235 24.3151C19.8927 24.1407 19.0165 22.9715 19.0165 21.7616C19.0165 20.6233 19.5756 20.0267 19.833 19.7521C19.8506 19.7333 19.8668 19.716 19.8814 19.7001C20.1078 19.4527 20.3756 19.3909 20.5403 19.3909C20.705 19.3909 20.8699 19.3924 21.0139 19.3996C21.0317 19.4005 21.0501 19.4004 21.0692 19.4003C21.2132 19.3995 21.3928 19.3984 21.5699 19.8238C21.638 19.9875 21.7377 20.2303 21.8428 20.4862C22.0555 21.0039 22.2904 21.5758 22.3317 21.6586C22.3935 21.7823 22.4347 21.9266 22.3523 22.0915C22.34 22.1163 22.3285 22.1396 22.3176 22.1619C22.2558 22.2882 22.2102 22.3811 22.1052 22.5037C22.064 22.5519 22.0213 22.6039 21.9786 22.6559C21.8936 22.7594 21.8086 22.8629 21.7346 22.9367C21.6109 23.0599 21.4821 23.1936 21.6262 23.441C21.7704 23.6884 22.2663 24.4975 23.0009 25.1528C23.7906 25.8571 24.4769 26.1548 24.8248 26.3057C24.8927 26.3352 24.9477 26.359 24.9881 26.3793C25.2351 26.503 25.3793 26.4823 25.5234 26.3174C25.6676 26.1525 26.1411 25.5958 26.3058 25.3485C26.4705 25.1012 26.6353 25.1424 26.8618 25.2248C27.0883 25.3074 28.3032 25.9051 28.5503 26.0288C28.5986 26.0529 28.6437 26.0747 28.6855 26.0949Z" fill="#282828"/>
</svg>
