<svg width="40" height="40" viewBox="0 0 40 40" fill="none" xmlns="http://www.w3.org/2000/svg">
<rect x="0.5" y="0.5" width="39" height="39" rx="7.5" stroke="#E0E0E0"/>
<path fill-rule="evenodd" clip-rule="evenodd" d="M20.0346 28.2125H20.0312C18.6519 28.2121 17.2967 27.866 16.0929 27.2094L11.7241 28.3555L12.8933 24.0849C12.1721 22.8351 11.7926 21.4174 11.7932 19.9649C11.795 15.421 15.4921 11.7241 20.0346 11.7241C22.2392 11.7251 24.3084 12.5833 25.8643 14.1411C27.4203 15.6988 28.2767 17.7693 28.2758 19.9714C28.274 24.5142 24.5785 28.2107 20.0346 28.2125ZM16.2954 25.7177L16.5455 25.8662C17.5972 26.4903 18.8028 26.8205 20.0319 26.821H20.0347C23.8101 26.821 26.8829 23.7481 26.8844 19.9711C26.8851 18.1408 26.1733 16.4199 24.8801 15.1251C23.5868 13.8304 21.867 13.117 20.0374 13.1163C16.2591 13.1163 13.1862 16.1889 13.1847 19.9656C13.1842 21.2599 13.5463 22.5204 14.232 23.6109L14.3949 23.8701L13.7029 26.3978L16.2954 25.7177ZM23.9046 21.7458C24.0483 21.8153 24.1452 21.8621 24.1867 21.9313C24.2381 22.0171 24.2381 22.4294 24.0666 22.9105C23.8949 23.3915 23.0723 23.8305 22.6766 23.8896C22.3219 23.9426 21.8729 23.9648 21.3796 23.808C21.0806 23.7131 20.697 23.5864 20.2057 23.3742C18.2753 22.5407 16.9707 20.6696 16.7241 20.316C16.7068 20.2912 16.6947 20.2739 16.688 20.2649L16.6863 20.2627C16.5774 20.1173 15.8472 19.143 15.8472 18.1347C15.8472 17.1862 16.3131 16.689 16.5276 16.4602C16.5423 16.4445 16.5558 16.4301 16.5679 16.4169C16.7566 16.2107 16.9797 16.1592 17.117 16.1592C17.2543 16.1592 17.3917 16.1604 17.5117 16.1665C17.5265 16.1672 17.5419 16.1671 17.5578 16.167C17.6778 16.1663 17.8274 16.1654 17.975 16.5199C18.0318 16.6564 18.1148 16.8586 18.2024 17.0719C18.3796 17.5033 18.5754 17.98 18.6099 18.0489C18.6614 18.152 18.6957 18.2722 18.627 18.4097C18.6167 18.4303 18.6072 18.4498 18.5981 18.4684C18.5465 18.5736 18.5086 18.651 18.4211 18.7532C18.3867 18.7934 18.3512 18.8367 18.3156 18.88C18.2448 18.9663 18.1739 19.0525 18.1122 19.114C18.0091 19.2167 17.9018 19.3281 18.0219 19.5342C18.1421 19.7404 18.5553 20.4147 19.1675 20.9607C19.8256 21.5477 20.3975 21.7958 20.6874 21.9215C20.744 21.9461 20.7899 21.966 20.8235 21.9828C21.0293 22.0859 21.1495 22.0687 21.2696 21.9313C21.3897 21.7938 21.7844 21.33 21.9216 21.1238C22.0589 20.9178 22.1962 20.9521 22.3849 21.0208C22.5737 21.0896 23.5861 21.5877 23.792 21.6907C23.8322 21.7109 23.8698 21.729 23.9046 21.7458Z" fill="white"/>
</svg>
